<?xml version="1.0" encoding="utf-8"?>
<!-- Made using the Adobe Image AI. You will own nothing and you will be happy. -->
<svg xmlns="http://www.w3.org/2000/svg" xmlns:xlink="http://www.w3.org/1999/xlink" version="1.1" x="0px" y="0px" viewBox="0 0 512 512" style="enable-background:new 0 0 512 512;" xml:space="preserve">
<style xmlns="http://www.w3.org/2000/svg" type="text/css">
	.st0 { fill: url(#pageColor); }
</style>
<g id="logocon">
	<g>
		<linearGradient id="pageColor" gradientUnits="userSpaceOnUse" x1="49.9552" y1="261.8077" x2="469.9559" y2="261.8077">
			<stop offset="0" style="stop-color:#FFFFFF"/>
			<stop offset="1" style="stop-color:#D9D2D3"/>
		</linearGradient>
		<path class="st0" d="M49.96,121.21c15.45,51.15,137.2,386.81,180.46,363.84c43.26-22.97,243.8-108.11,239.48-122.81    C465.56,347.54,293.7,70.5,312.61,64.86c170.26-50.84-9.58,133.22-9.58,133.22S260.38,31.48,248.33,37.6    C236.28,43.73,49.96,121.21,49.96,121.21z"/>
		<path d="M54.95,123.57c0.65-0.65,0.93-1.83,0.7-2.6c-0.09-0.33,0.03,0.08,0.03,0.08s0.09,0.29,0.09,0.29s0.18,0.58,0.18,0.58    s0.72,2.32,0.72,2.32c7.47,23.32,15.74,46.52,24.1,69.52c18,49.2,37.06,98.08,57.9,146.14c15.76,35.86,32.02,71.66,52.29,105.16    c6.71,10.76,13.93,21.78,23,30.51c4.02,3.68,10.06,8.72,15.14,5.81c64.06-31.49,130.26-58.62,193.82-91.09    c11.55-5.96,23.2-12.04,34.08-19.07c3.28-2.2,6.5-4.34,9.12-7.1c0.48-0.6,0.9-1.04,1.05-1.49c-0.02,0.01,0.01-0.02-0.01,0.08    c0,0.04,0.01,0.26,0.05,0.29c-2.87-6.68-6.8-13.05-10.34-19.56c-45.23-79.96-93.75-158.25-134.42-240.72    c-4.19-8.97-8.43-17.97-11.36-27.49c-0.87-3.52-3.33-10.5,1.5-11.87c0,0,1.19-0.34,1.19-0.34c5.39-1.52,11.28-3.15,16.75-4.36    c12.89-2.76,26.34-5.35,39.53-3.02c57.4,12.29-48.34,123.68-66.64,142.79c0,0.01-0.61,0.64-0.61,0.65c0,0-0.24-0.86-0.24-0.86    c-8.5-31.07-17.44-62.04-27.21-92.71c-6.25-19.06-12.28-38.24-20.73-56.36c-1.61-3.11-3.2-6.69-5.75-8.96    c-0.17-0.13-0.23-0.05,0.16-0.02c0.16,0.01,0.49-0.08,0.51-0.11l-0.7,0.34c-6.4,3.1-12.93,5.91-19.4,8.82    C173.45,73.9,113.87,99.62,57.63,123.92c0,0-2.77,1.2-2.77,1.2s-0.69,0.3-0.69,0.3C54.82,125.14,55.09,124.31,54.95,123.57    L54.95,123.57z M44.96,118.85c1.21-1.42,3.12-2.87,4.97-3.58c0,0,0.71-0.28,0.71-0.28s2.8-1.12,2.8-1.12    c63.51-25.67,129.94-51.78,192.95-78.38c3.67-2.04,6.33,0.46,8.23,3.1c4.09,6.07,6.59,13,9.21,19.73    c16.27,45.67,27.84,92.72,39.68,139.64c0,0-0.84-0.23-0.84-0.23c9.06-9.48,17.81-19.26,26.33-29.24    c16.64-19.98,62.61-74.43,54.77-100.14c-6.37-17.38-38.8-10.07-52.65-7.04c-5.39,1.24-11.23,2.89-16.55,4.46    c-0.72,0.21-1.85,0.55-1.64,0.52c-0.11,0.08-0.3,0.67-0.31,1.34c0.26,5.5,2.68,10.73,4.62,15.87c2.47,6.02,5.23,11.95,8.08,17.84    c29.27,58.68,63.26,114.9,96.32,171.5c16.53,28.44,33.89,56.29,49.5,85.32c0.66,1.43,1.64,3.05,1.59,4.75    c-0.22,3.14-2.47,4.99-4.4,6.9c-7.73,6.64-16.56,11.42-25.24,16.44c-68.61,37.58-141.17,67.1-210.95,102.26    c-14.5,7.15-29.36-12.71-36.97-22.54c-26.83-37.79-45.78-80.43-64.9-122.38c-29.18-66.21-55.52-133.62-79.38-201.91    c-0.8-2.51-3.93-11.5-4.72-14.1c0,0-0.76-2.38-0.76-2.38s-0.44-1.41-0.44-1.41C44.51,122.25,44.55,120.28,44.96,118.85    L44.96,118.85z"/>
	</g>
	<g>
		
			<linearGradient id="g" gradientUnits="userSpaceOnUse" x1="353.4874" y1="344.6313" x2="354.5548" y2="344.6313" gradientTransform="matrix(0.9703 -0.2419 0.2419 0.9703 -77.4576 34.8961)">
			<stop offset="2.237672e-07" style="stop-color:#39C6F4"/>
			<stop offset="1" style="stop-color:#72D0F6"/>
		</linearGradient>
		<polygon style="fill:url(#g);" points="165.04,187.81 5.08,218.44     68.89,463.85 192,473.96 201.26,299.42 103.62,333.86 162.14,370.57 112.03,423.02 57.74,272.73 168.64,225.69   "/>
		<path d="M160.6,193.73c-51.58,10.38-102.63,19.28-154.93,27.8c0,0,1.72-3.7,1.72-3.7l64.45,245.25c0,0-2.7-2.27-2.7-2.27    c30.8,2.63,61.74,3.55,92.65,3.71c10.33,0.01,20.67-0.11,31.03-0.59c0,0-10.87,9.49-10.87,9.49    c0.29-0.06,18.19-175.86,19.44-173.62c0,0-97.48,34.9-97.48,34.9s0.18-1.6,0.18-1.6l60.56,33.45c0,0,5.48,3.03,5.48,3.03    s-4.57,4.25-4.57,4.25l-53.2,49.49c0,0-0.5,0.46-0.5,0.46l-0.25-0.62c0,0-59.58-148.38-59.58-148.38s-2.24-5.58-2.24-5.58    s5.58-2.07,5.58-2.07l113.08-41.91l-0.3,0.5C164.99,214.51,161.79,204.61,160.6,193.73L160.6,193.73z M169.48,181.9    c1.33,14.68,0.91,30.08-0.37,44.12c-0.17-0.11-108.78,52.34-109,52.3c0,0,3.34-7.64,3.34-7.64l49.01,152.19    c0,0-0.74-0.16-0.74-0.16s47-55.41,47-55.41s0.91,7.28,0.91,7.28l-56.48-39.96l-1.46-1.03c0,0,1.64-0.57,1.64-0.57l97.8-33.99    c0,0,0.55-0.19,0.55-0.19s0,0.6,0,0.6s0.37,175.05,0.37,175.05l0.03,11.82c-13.57-3.03-27.79-5.76-41.42-7.96    c-31.23-4.99-62.63-9.23-94.17-11.61c0,0-0.54-2.12-0.54-2.12S2.76,219.04,2.76,219.04s-0.81-3.14-0.81-3.14    C57.14,203.76,113.53,192.1,169.48,181.9L169.48,181.9z"/>
	</g>
	<g>
		
			<linearGradient id="c" gradientUnits="userSpaceOnUse" x1="186.2414" y1="268.2465" x2="403.5372" y2="268.2465">
			<stop offset="0" style="stop-color:#A154A1"/>
			<stop offset="0.1173" style="stop-color:#A95BA4"/>
			<stop offset="1" style="stop-color:#EE96C0"/>
		</linearGradient>
		<polygon style="fill:url(#c);" points="292.54,103.47 186.24,159.24     236.39,433.02 403.54,364.22 378.89,321.26 259.05,359.17 234.12,181.43 305.51,145.48   "/>
		<path d="M289.24,111.4c-33.49,17.7-67.32,32.7-102.77,48.28c0,0,0.26-0.53,0.26-0.53s56.86,272.55,56.86,272.55    s-9.99-5.45-9.99-5.45s167.27-68.51,167.27-68.51s-3.42,9.98-3.42,9.98s-20.01-45.62-20.01-45.62s1.96,0.76,1.96,0.76    c-0.69,0.07-120.15,36.88-120.75,36.96c-4.66-29.84-16.37-104.74-20.88-133.59c-2.45-15.54-4.79-31.09-7.36-46.61    c0,0,2.2-1.19,2.2-1.19s70.28-38.16,70.28-38.16s-2.96,6.95-2.96,6.95C295.13,135.11,291.83,124.01,289.24,111.4L289.24,111.4z     M295.84,95.54c6.72,17.08,12.35,35.49,16.51,53.22c0,0-4.2,1.95-4.2,1.95s-72.51,33.72-72.51,33.72s1.82-3.48,1.82-3.48    c3,25.72,7.85,62.98,11.02,89.08c0,0,11.07,89.07,11.07,89.07l-0.65-0.41c0,0,119.48-39.03,119.48-39.03l1.13-0.37    c0,0,0.82,1.13,0.82,1.13c2.76,3.8,32.06,44.13,34.07,46.89c0,0-8.2,3.39-8.2,3.39s-167.03,69.08-167.03,69.08    s-8.57,3.55-8.57,3.55s-1.42-9-1.42-9c-0.11-0.17-43.39-275.16-43.48-275.35c0,0,0.31-0.19,0.31-0.19    C221.26,137.04,258.37,115.05,295.84,95.54L295.84,95.54z"/>
	</g>
	<g>
		
			<linearGradient id="n" gradientUnits="userSpaceOnUse" x1="403.5372" y1="53.6331" x2="403.5372" y2="302.6317">
			<stop offset="0" style="stop-color:#2DB34A"/>
			<stop offset="1" style="stop-color:#75C043"/>
		</linearGradient>
		<polygon style="fill:url(#n);" points="310.47,100.11 348.98,302.63     387.72,298.36 344.77,142.19 446.38,283.26 496.61,270.41 435.22,53.63 384.57,71.65 442.17,232.4 353.38,73.83   "/>
		<path d="M319.12,103.94c11.07,65.83,20.65,131.78,30.35,198.6c0,0-0.55-0.4-0.55-0.4l38.56-5.9l-1.82,2.69l-41.37-156.6    c0,0-0.69-2.62-0.69-2.62s1.58,2.19,1.58,2.19l101.61,141.07c0,0-0.53-0.19-0.53-0.19s47.64-22.94,47.64-22.94l-7.8,13.55    c0.3,0.04-52.67-221.49-50.71-219.28c0,0-50.65,18.02-50.65,18.02l0.3-0.64c0,0,61.35,159.4,61.35,159.4s-8.13,3.7-8.13,3.7    L352.95,74.08c0,0,0.7,0.18,0.7,0.18C341.88,84.67,330.96,94.87,319.12,103.94L319.12,103.94z M301.82,96.28    c16.76-8.75,34.34-16.26,51.3-22.87c0,0,0.48-0.19,0.48-0.19c0.08,0,92.35,156.87,92.48,156.99c0,0-8.13,3.7-8.13,3.7L384.1,71.82    l-0.16-0.48c0,0,0.46-0.16,0.46-0.16s50.65-18.02,50.65-18.02s0.48-0.17,0.48-0.17s0.17,0.51,0.17,0.51s71.41,213.94,71.41,213.94    s4.31,12.92,4.31,12.92c-7.2,0.25-56.48,3.03-64.92,3.38c-0.74,0.63-101.66-141.18-102.14-141.26c0,0,0.89-0.43,0.89-0.43    l44.52,155.73c0,0,0.72,2.51,0.72,2.51s-2.54,0.17-2.54,0.17s-38.92,2.65-38.92,2.65s-0.44,0.03-0.44,0.03    C332.47,234.87,316.41,165.68,301.82,96.28L301.82,96.28z"/>
	</g>
</g>


</svg>